<svg xmlns="http://www.w3.org/2000/svg" xmlns:xlink="http://www.w3.org/1999/xlink" width="1024" height="1024" preserveAspectRatio="xMidYMid meet" viewBox="0 0 1024 1024" style="-ms-transform: rotate(360deg); -webkit-transform: rotate(360deg); transform: rotate(360deg);"><path d="M512 1024q-139 0-257-68.5T68.5 769T0 512t68.5-257T255 68.5T512 0t257 68.5T955.5 255t68.5 257t-68.5 257T769 955.5T512 1024zm0-896q-104 0-192.5 51.5t-140 140T128 512t51.5 192.5t140 140T512 896t192.5-51.5t140-140T896 512t-51.5-192.5t-140-140T512 128zm-2 531q-5 18-15 28q-20 20-49 16q-28 2-46-16q-10-10-14-27L272 546q-17-17-17-41t17-41t41-17t41 17l93 93l222-221q17-17 41-17t41 17t17 41t-17 41z" fill="#626262"/><rect x="0" y="0" width="1024" height="1024" fill="rgba(0, 0, 0, 0)" /></svg>