<svg width="15" height="15" viewBox="0 0 1 1" xmlns="http://www.w3.org/2000/svg">
<path d="M0.500003 0.166662C0.683753 0.166662 0.833336 0.316245 0.833336 0.499995C0.833336 0.683745 0.683753 0.833328 0.500003 0.833328C0.316253 0.833328 0.166669 0.683745 0.166669 0.499995C0.166669 0.316245 0.316253 0.166662 0.500003 0.166662ZM0.500003 0.0833282C0.269878 0.0833282 0.0833359 0.26987 0.0833359 0.499995C0.0833359 0.73012 0.269878 0.916662 0.500003 0.916662C0.730128 0.916662 0.916669 0.73012 0.916669 0.499995C0.916669 0.26987 0.730128 0.0833282 0.500003 0.0833282ZM0.708336 0.458328H0.291669V0.541662H0.708336V0.458328Z"  fill="white"/>
</svg>
