<svg width="14" height="14" viewBox="0 0 14 14" fill="none" xmlns="http://www.w3.org/2000/svg">
<path d="M13.3835 11.5914L8.7921 6.99996L13.3835 2.40855C13.8792 1.91284 13.8792 1.1148 13.3835 0.619092C12.8878 0.123389 12.0898 0.123389 11.5941 0.619092L7.00264 5.2105L2.41123 0.619092C1.91553 0.123389 1.11748 0.123389 0.621778 0.619092C0.126074 1.1148 0.126074 1.91284 0.621778 2.40855L5.21319 6.99996L0.621778 11.5914C0.126074 12.0871 0.126074 12.8851 0.621778 13.3808C1.11748 13.8765 1.91553 13.8765 2.41123 13.3808L7.00264 8.78941L11.5941 13.3808C12.0898 13.8765 12.8878 13.8765 13.3835 13.3808C13.8757 12.8851 13.8757 12.0836 13.3835 11.5914Z" fill="white"/>
</svg>
