<svg width="14" height="14" viewBox="0 0 14 14" fill="none" xmlns="http://www.w3.org/2000/svg">
<path d="M12.6016 4.63998C12.3894 4.63998 12.1859 4.72426 12.0359 4.87429C11.8858 5.02432 11.8016 5.2278 11.8016 5.43998V10.2C11.8003 10.6239 11.6313 11.0302 11.3315 11.3299C11.0317 11.6297 10.6255 11.7987 10.2016 11.8H3.80156C3.37761 11.7987 2.97137 11.6297 2.67159 11.3299C2.37181 11.0302 2.20283 10.6239 2.20156 10.2V3.79998C2.20283 3.37602 2.37181 2.96979 2.67159 2.67C2.97137 2.37022 3.37761 2.20124 3.80156 2.19998H8.56156C8.77374 2.19998 8.97722 2.11569 9.12725 1.96566C9.27728 1.81563 9.36156 1.61215 9.36156 1.39998C9.36156 1.1878 9.27728 0.984319 9.12725 0.83429C8.97722 0.684261 8.77374 0.599976 8.56156 0.599976H3.80156C2.95365 0.602508 2.14119 0.940463 1.54162 1.54003C0.94205 2.1396 0.604095 2.95206 0.601562 3.79998V10.2C0.604095 11.0479 0.94205 11.8604 1.54162 12.4599C2.14119 13.0595 2.95365 13.3974 3.80156 13.4H10.2016C11.0495 13.3974 11.8619 13.0595 12.4615 12.4599C13.0611 11.8604 13.399 11.0479 13.4016 10.2V5.43998C13.4016 5.2278 13.3173 5.02432 13.1672 4.87429C13.0172 4.72426 12.8137 4.63998 12.6016 4.63998ZM6.44156 7.75998C6.51381 7.83578 6.6007 7.89613 6.69695 7.93736C6.79321 7.97859 6.89684 7.99986 7.00156 7.99986C7.10628 7.99986 7.20991 7.97859 7.30617 7.93736C7.40243 7.89613 7.48932 7.83578 7.56156 7.75998L12.1616 3.15998C12.3076 3.01094 12.3889 2.8103 12.3879 2.60163C12.3868 2.39297 12.3035 2.19315 12.1559 2.0456C12.0084 1.89805 11.8086 1.8147 11.5999 1.81364C11.3912 1.81259 11.1906 1.89392 11.0416 2.03998L6.44156 6.63998C6.36576 6.71222 6.30541 6.79911 6.26418 6.89537C6.22294 6.99163 6.20168 7.09526 6.20168 7.19998C6.20168 7.30469 6.22294 7.40832 6.26418 7.50458C6.30541 7.60084 6.36576 7.68773 6.44156 7.75998Z" fill="white"/>
</svg>
