<svg width="14" height="14" viewBox="0 0 14 14" fill="none" xmlns="http://www.w3.org/2000/svg">
<path d="M7.00312 0.199953C5.65821 0.199953 4.3435 0.598767 3.22525 1.34596C2.107 2.09315 1.23542 3.15517 0.720747 4.39771C0.206071 5.64024 0.0714087 7.0075 0.333788 8.32657C0.596167 9.64564 1.2438 10.8573 2.1948 11.8083C3.1458 12.7593 4.35744 13.4069 5.67651 13.6693C6.99558 13.9317 8.36283 13.797 9.60537 13.2823C10.8479 12.7677 11.9099 11.8961 12.6571 10.7778C13.4043 9.65958 13.8031 8.34487 13.8031 6.99995C13.8039 6.10676 13.6285 5.22218 13.287 4.39684C12.9455 3.57149 12.4447 2.82157 11.8131 2.18999C11.1815 1.5584 10.4316 1.05754 9.60624 0.716073C8.7809 0.374602 7.89632 0.199217 7.00312 0.199953ZM7.00312 12.2C5.97466 12.2 4.9693 11.895 4.11416 11.3236C3.25903 10.7522 2.59253 9.94008 2.19895 8.98991C1.80538 8.03973 1.7024 6.99419 1.90304 5.98548C2.10369 4.97678 2.59894 4.05023 3.32617 3.323C4.0534 2.59577 4.97995 2.10051 5.98866 1.89987C6.99736 1.69923 8.0429 1.8022 8.99308 2.19578C9.94325 2.58936 10.7554 3.25585 11.3268 4.11099C11.8981 4.96612 12.2031 5.97149 12.2031 6.99995C12.2045 7.68321 12.0709 8.36002 11.8101 8.99153C11.5492 9.62304 11.1663 10.1968 10.6831 10.68C10.2 11.1631 9.62621 11.5461 8.9947 11.8069C8.36319 12.0678 7.68638 12.2013 7.00312 12.2ZM9.40312 6.39995H7.80312V4.79995C7.80312 4.58778 7.71884 4.3843 7.56881 4.23427C7.41878 4.08424 7.2153 3.99995 7.00312 3.99995C6.79095 3.99995 6.58747 4.08424 6.43744 4.23427C6.28741 4.3843 6.20312 4.58778 6.20312 4.79995V6.39995H4.60313C4.39095 6.39995 4.18747 6.48424 4.03744 6.63427C3.88741 6.7843 3.80313 6.98778 3.80313 7.19995C3.80313 7.41213 3.88741 7.61561 4.03744 7.76564C4.18747 7.91567 4.39095 7.99995 4.60313 7.99995H6.20312V9.59995C6.20312 9.81213 6.28741 10.0156 6.43744 10.1656C6.58747 10.3157 6.79095 10.4 7.00312 10.4C7.2153 10.4 7.41878 10.3157 7.56881 10.1656C7.71884 10.0156 7.80312 9.81213 7.80312 9.59995V7.99995H9.40312C9.6153 7.99995 9.81878 7.91567 9.96881 7.76564C10.1188 7.61561 10.2031 7.41213 10.2031 7.19995C10.2031 6.98778 10.1188 6.7843 9.96881 6.63427C9.81878 6.48424 9.6153 6.39995 9.40312 6.39995Z" fill="white"/>
</svg>
