<svg width="14" height="14" viewBox="0 0 14 14" fill="none" xmlns="http://www.w3.org/2000/svg">
<path d="M12.6016 2.80002H1.40156C1.18939 2.80002 0.985906 2.88431 0.835877 3.03434C0.685848 3.18437 0.601563 3.38785 0.601562 3.60002C0.601563 3.8122 0.685848 4.01568 0.835877 4.16571C0.985906 4.31574 1.18939 4.40002 1.40156 4.40002H1.84156L2.56156 11.44C2.61968 12.0347 2.89819 12.5861 3.34232 12.9859C3.78645 13.3856 4.36406 13.6047 4.96156 13.6H9.04156C10.2816 13.6 11.2816 12.68 11.4416 11.44L12.1616 4.40002H12.6016C12.8137 4.40002 13.0172 4.31574 13.1672 4.16571C13.3173 4.01568 13.4016 3.8122 13.4016 3.60002C13.4016 3.38785 13.3173 3.18437 13.1672 3.03434C13.0172 2.88431 12.8137 2.80002 12.6016 2.80002ZM9.84156 11.28C9.81779 11.4765 9.72365 11.6577 9.57657 11.79C9.42948 11.9224 9.23942 11.997 9.04156 12H4.96156C4.7637 11.997 4.57364 11.9224 4.42656 11.79C4.27947 11.6577 4.18533 11.4765 4.16156 11.28L3.44156 4.40002H10.5616L9.84156 11.28ZM5.80156 10.8C6.01374 10.8 6.21722 10.7157 6.36725 10.5657C6.51728 10.4157 6.60156 10.2122 6.60156 10V6.20002C6.60156 5.98785 6.51728 5.78437 6.36725 5.63434C6.21722 5.48431 6.01374 5.40002 5.80156 5.40002C5.58939 5.40002 5.38591 5.48431 5.23588 5.63434C5.08585 5.78437 5.00156 5.98785 5.00156 6.20002V10C5.00156 10.2122 5.08585 10.4157 5.23588 10.5657C5.38591 10.7157 5.58939 10.8 5.80156 10.8ZM8.20156 10.8C8.41374 10.8 8.61722 10.7157 8.76725 10.5657C8.91728 10.4157 9.00156 10.2122 9.00156 10V6.20002C9.00156 5.98785 8.91728 5.78437 8.76725 5.63434C8.61722 5.48431 8.41374 5.40002 8.20156 5.40002C7.98939 5.40002 7.78591 5.48431 7.63588 5.63434C7.48585 5.78437 7.40156 5.98785 7.40156 6.20002V10C7.40156 10.2122 7.48585 10.4157 7.63588 10.5657C7.78591 10.7157 7.98939 10.8 8.20156 10.8ZM5.80156 2.00002H8.00156C8.21374 2.00002 8.41722 1.91574 8.56725 1.76571C8.71728 1.61568 8.80156 1.4122 8.80156 1.20002C8.80156 0.987851 8.71728 0.784368 8.56725 0.634339C8.41722 0.48431 8.21374 0.400024 8.00156 0.400024H5.80156C5.58939 0.400024 5.38591 0.48431 5.23588 0.634339C5.08585 0.784368 5.00156 0.987851 5.00156 1.20002C5.00156 1.4122 5.08585 1.61568 5.23588 1.76571C5.38591 1.91574 5.58939 2.00002 5.80156 2.00002Z" fill="#D72929"/>
</svg>
