<svg width="12" height="14" viewBox="0 0 12 14" fill="none" xmlns="http://www.w3.org/2000/svg">
<path d="M9.6 0.400024H5.2C4.56406 0.401924 3.95472 0.65539 3.50504 1.10507C3.05537 1.55474 2.8019 2.16409 2.8 2.80002H2.4C1.76406 2.80192 1.15472 3.05539 0.705042 3.50507C0.255366 3.95474 0.00189927 4.56409 0 5.20002V11.2C0.00189927 11.836 0.255366 12.4453 0.705042 12.895C1.15472 13.3447 1.76406 13.5981 2.4 13.6H6.8C7.43594 13.5981 8.04528 13.3447 8.49496 12.895C8.94463 12.4453 9.1981 11.836 9.2 11.2H9.6C10.2359 11.1981 10.8453 10.9447 11.295 10.495C11.7446 10.0453 11.9981 9.43596 12 8.80002V2.80002C11.9981 2.16409 11.7446 1.55474 11.295 1.10507C10.8453 0.65539 10.2359 0.401924 9.6 0.400024ZM7.6 11.2C7.6 11.4122 7.51571 11.6157 7.36569 11.7657C7.21566 11.9157 7.01217 12 6.8 12H2.4C2.18783 12 1.98434 11.9157 1.83431 11.7657C1.68429 11.6157 1.6 11.4122 1.6 11.2V5.20002C1.6 4.98785 1.68429 4.78437 1.83431 4.63434C1.98434 4.48431 2.18783 4.40002 2.4 4.40002H6.8C7.01217 4.40002 7.21566 4.48431 7.36569 4.63434C7.51571 4.78437 7.6 4.98785 7.6 5.20002V11.2ZM10.4 8.80002C10.4 9.0122 10.3157 9.21568 10.1657 9.36571C10.0157 9.51574 9.81217 9.60003 9.6 9.60003H9.2V5.20002C9.1981 4.56409 8.94463 3.95474 8.49496 3.50507C8.04528 3.05539 7.43594 2.80192 6.8 2.80002H4.4C4.4 2.58785 4.48429 2.38437 4.63431 2.23434C4.78434 2.08431 4.98783 2.00002 5.2 2.00002H9.6C9.81217 2.00002 10.0157 2.08431 10.1657 2.23434C10.3157 2.38437 10.4 2.58785 10.4 2.80002V8.80002ZM6 9.60003H3.2C2.98783 9.60003 2.78434 9.68431 2.63431 9.83434C2.48429 9.98437 2.4 10.1879 2.4 10.4C2.4 10.6122 2.48429 10.8157 2.63431 10.9657C2.78434 11.1157 2.98783 11.2 3.2 11.2H6C6.21217 11.2 6.41566 11.1157 6.56569 10.9657C6.71571 10.8157 6.8 10.6122 6.8 10.4C6.8 10.1879 6.71571 9.98437 6.56569 9.83434C6.41566 9.68431 6.21217 9.60003 6 9.60003ZM6 7.20003H3.2C2.98783 7.20003 2.78434 7.28431 2.63431 7.43434C2.48429 7.58437 2.4 7.78785 2.4 8.00002C2.4 8.2122 2.48429 8.41568 2.63431 8.56571C2.78434 8.71574 2.98783 8.80002 3.2 8.80002H6C6.21217 8.80002 6.41566 8.71574 6.56569 8.56571C6.71571 8.41568 6.8 8.2122 6.8 8.00002C6.8 7.78785 6.71571 7.58437 6.56569 7.43434C6.41566 7.28431 6.21217 7.20003 6 7.20003Z" fill="white"/>
</svg>
