<svg width="14" height="14" viewBox="0 0 14 14" fill="none" xmlns="http://www.w3.org/2000/svg">
<path d="M12.9294 8.81171C12.4948 8.37578 11.9285 8.09541 11.3183 8.01405C10.7081 7.93269 10.0881 8.05489 9.55444 8.36171L8.56444 8.90171L8.06944 8.00171L11.7594 1.61171C11.8788 1.40882 11.9126 1.16683 11.8536 0.938972C11.7945 0.711116 11.6473 0.516059 11.4444 0.396711C11.2415 0.277364 10.9996 0.243502 10.7717 0.302576C10.5438 0.36165 10.3488 0.50882 10.2294 0.711711L7.07944 6.20171L3.83944 0.756711C3.56944 0.306711 3.02944 0.171711 2.62444 0.441711C2.17444 0.711711 2.03944 1.25171 2.30944 1.65671L5.99944 8.04671L5.50444 8.94671L4.42444 8.36171C3.92952 8.09291 3.3662 7.97635 2.80525 8.02668C2.2443 8.07702 1.71073 8.292 1.27157 8.64462C0.832408 8.99723 0.507244 9.47177 0.336923 10.0086C0.166601 10.5454 0.158719 11.1206 0.314265 11.6619C0.469811 12.2032 0.781849 12.6865 1.21118 13.051C1.64051 13.4155 2.16799 13.6451 2.72735 13.7107C3.28671 13.7764 3.85302 13.6754 4.35512 13.4202C4.85721 13.1651 5.27272 12.7673 5.54944 12.2767L6.98944 9.80171L8.42944 12.2767C9.23944 13.7167 11.1294 14.1217 12.4794 13.2667C12.8431 13.0353 13.1495 12.7245 13.3757 12.3576C13.6019 11.9907 13.7419 11.5772 13.7852 11.1484C13.8285 10.7195 13.774 10.2865 13.6258 9.88172C13.4776 9.47699 13.2395 9.11114 12.9294 8.81171ZM4.01944 11.4217C3.93959 11.5488 3.83413 11.6579 3.70978 11.7419C3.58543 11.826 3.44492 11.8832 3.29723 11.9099C3.14953 11.9366 2.99788 11.9323 2.85196 11.8971C2.70604 11.862 2.56905 11.7968 2.44973 11.7057C2.33041 11.6147 2.23139 11.4997 2.15897 11.3683C2.08655 11.2368 2.04233 11.0917 2.02912 10.9422C2.01592 10.7926 2.03403 10.642 2.0823 10.4999C2.13056 10.3578 2.20792 10.2273 2.30944 10.1167C2.47405 9.95836 2.68429 9.85577 2.9104 9.82347C3.13652 9.79117 3.36707 9.83078 3.56944 9.93671L4.55944 10.4767L4.01944 11.4217ZM11.4894 11.7817C10.9494 12.0967 10.2744 11.9617 9.95944 11.4217L9.41944 10.4767L10.4094 9.93671C10.8144 9.71171 11.3544 9.75671 11.6694 10.1167C12.1644 10.5667 12.0744 11.4217 11.4894 11.7817Z" fill="white"/>
</svg>
