<svg width="14" height="14" viewBox="0 0 14 14" fill="none" xmlns="http://www.w3.org/2000/svg">
<path d="M11.3594 10.26C12.1879 9.18148 12.6378 7.85995 12.6394 6.49997C12.6794 3.09997 9.91937 0.339966 6.51937 0.339966C4.88564 0.339966 3.31882 0.988964 2.1636 2.14419C1.00837 3.29941 0.359375 4.86623 0.359375 6.49997C0.359375 8.1337 1.00837 9.70052 2.1636 10.8557C3.31882 12.011 4.88564 12.66 6.51937 12.66C7.88045 12.665 9.20405 12.2144 10.2794 11.38L12.3194 13.42C12.6394 13.74 13.1194 13.74 13.3994 13.42C13.4752 13.3477 13.5355 13.2608 13.5768 13.1646C13.618 13.0683 13.6393 12.9647 13.6393 12.86C13.6393 12.7552 13.618 12.6516 13.5768 12.5554C13.5355 12.4591 13.4752 12.3722 13.3994 12.3L11.3594 10.26ZM6.51937 11.06C5.61749 11.06 4.73586 10.7925 3.98597 10.2915C3.23609 9.79041 2.65162 9.07823 2.30648 8.245C1.96135 7.41177 1.87105 6.49491 2.04699 5.61035C2.22294 4.7258 2.65724 3.91329 3.29497 3.27556C3.9327 2.63783 4.74521 2.20353 5.62976 2.02758C6.51432 1.85164 7.43118 1.94194 8.26441 2.28708C9.09764 2.63221 9.80982 3.21668 10.3109 3.96657C10.8119 4.71645 11.0794 5.59808 11.0794 6.49997C11.0794 7.70935 10.5989 8.86921 9.74378 9.72437C8.88862 10.5795 7.72876 11.06 6.51937 11.06Z" fill="#C7CACE"/>
</svg>
