<svg width="99" height="103" viewBox="0 0 99 103" fill="none" xmlns="http://www.w3.org/2000/svg">
<path d="M15.2312 37.9185H83.6009C85.6636 37.9185 87.3316 39.4279 87.3316 41.2945V88.0012C87.3316 89.8638 85.6636 91.3718 83.6009 91.3718H15.2312C13.1703 91.3718 11.5015 89.8638 11.5015 88.0012V41.2945C11.5015 39.4279 13.1703 37.9185 15.2312 37.9185ZM9.3244 11.8105C4.17546 11.8105 0 15.9851 0 21.1358V93.2398C0 98.3878 4.17546 102.562 9.3244 102.562H89.5089C94.6583 102.562 98.8329 98.3878 98.8329 93.2398V21.1358C98.8329 15.9851 94.6583 11.8105 89.5089 11.8105H86.2463V17.7145C86.2463 21.6559 83.0396 24.8639 79.0969 24.8639C75.1556 24.8639 71.9489 21.6559 71.9489 17.7145V11.8105H26.8843V17.7145C26.8843 21.6559 23.6765 24.8639 19.7364 24.8639C15.7932 24.8639 12.5864 21.6559 12.5864 17.7145V11.8105H9.3244Z" fill="#DBDBDB"/>
<path d="M16.3174 3.41843V17.7145C16.3174 19.6011 17.8502 21.1357 19.7362 21.1357C21.6211 21.1357 23.1545 19.6011 23.1545 17.7145V11.8104V3.41843C23.1545 1.53043 21.6211 -0.000194053 19.7362 -0.000194053C17.8502 -0.000194053 16.3174 1.53043 16.3174 3.41843Z" fill="#DBDBDB"/>
<path d="M75.6782 3.41843V17.7145C75.6782 19.6011 77.2116 21.1357 79.0969 21.1357C80.9836 21.1357 82.5156 19.6011 82.5156 17.7145V11.8104V3.41843C82.5156 1.53043 80.9836 -0.000194053 79.0969 -0.000194053C77.2116 -0.000194053 75.6782 1.53043 75.6782 3.41843Z" fill="#DBDBDB"/>
<path d="M36.1256 62.2549V43.7456H18.0371V62.2549H36.1256Z" fill="#DBDBDB"/>
<path d="M58.898 62.2549V43.7456H40.8105V62.2549H58.898Z" fill="#DBDBDB"/>
<path d="M36.1256 85.0068V66.4962H18.0371V85.0068H36.1256Z" fill="#DBDBDB"/>
<path d="M58.898 85.0068V66.4962H40.8105V85.0068H58.898Z" fill="#DBDBDB"/>
<path d="M82.5153 62.2549V43.7456H64.4277V62.2549H82.5153Z" fill="#DBDBDB"/>
<path d="M82.5153 85.0068V66.4962H64.4277V85.0068H82.5153Z" fill="#DBDBDB"/>
</svg>
