<svg viewBox="0 0 85 84" fill="none" xmlns="http://www.w3.org/2000/svg">
<path d="M79.7733 1.45995C77.4933 0.993286 74.5466 0.682587 71 0.533257C67.32 0.381256 64.7333 0.542557 63.0933 1.03456C61.4533 1.5239 58.8266 3.03989 55.04 5.67323C51.3733 8.22523 46.5066 12.404 40.5466 18.0986C34.6039 23.772 29.2414 29.3786 24.604 34.7639C20.4507 39.5839 16.1266 44.9253 11.728 50.6666C11.712 50.6386 11.6973 50.6132 11.6827 50.5852C11.244 51.0066 10.8467 51.4586 10.46 51.9146C10.42 51.9613 10.3907 52.0092 10.3534 52.0546C6.10537 57.1306 0.201286 66.5026 2.16795 73.7373C2.27062 73.9253 2.37062 74.1199 2.47329 74.3199C3.15196 74.7172 3.80927 75.1426 4.4466 75.5932C5.25593 75.8892 6.06399 76.1933 6.87733 76.4786C7.70666 76.5426 8.53335 76.6266 9.36535 76.6799C13.808 76.0839 17.8653 74.8893 21.7827 72.9106C22.4627 72.2999 23.0933 71.6506 23.788 71.0626C23.8387 70.9879 23.8826 70.9226 23.9333 70.8479C30.9653 60.1879 39.7866 49.3319 50.1466 38.5786C60.4799 27.8559 70.1067 19.7626 78.76 14.5279C80.8667 13.2706 82.1867 12.34 82.92 11.5933C83.7334 10.7546 84.28 9.69457 84.5333 8.44791C84.8533 6.86257 84.5734 5.37989 83.72 4.03456C82.84 2.68389 81.5066 1.81461 79.7733 1.45995Z" fill="#4D4E50"/>
<path d="M68.1331 55.2001C65.7065 51.7187 61.7331 47.0774 56.3064 41.4054C50.9064 35.7521 45.5731 30.6494 40.4398 26.2361C36.0851 22.4761 31.2638 18.5694 26.1064 14.5961C25.8051 14.5041 25.5079 14.332 25.2252 14.0507C20.8692 9.71071 16.0851 7.41074 10.3958 5.20807C10.2104 5.13607 10.0518 5.04675 9.91048 4.94941C7.51181 4.37341 5.13848 4.27471 2.97715 4.95071C2.70381 5.09205 2.43317 5.25475 2.17051 5.45208C1.74117 6.58808 1.32783 7.73338 0.921159 8.87871C0.863826 9.20004 0.793112 9.52006 0.706445 9.8334C0.654445 10.4667 0.591758 11.0974 0.551758 11.7321C1.05309 15.4628 2.00108 18.9068 3.50775 22.2268C4.09975 23.2854 4.75184 24.2987 5.53184 25.2161C5.72384 25.3427 5.90248 25.4654 6.10514 25.5961C16.2505 32.2934 26.5811 40.6841 36.8131 50.5441C47.0264 60.3774 54.7198 69.5414 59.7064 77.7721C60.9064 79.7841 61.7865 81.0441 62.4932 81.7347C63.2932 82.5094 64.3065 83.0267 65.4932 83.2694C66.9998 83.5774 68.4132 83.3147 69.6932 82.4921C70.9732 81.6614 71.7998 80.3987 72.1464 78.7374C72.5864 76.5707 72.8798 73.7654 73.0265 70.3987C73.1732 66.8961 73.0131 64.4334 72.5464 62.8681C72.0798 61.3067 70.6398 58.8001 68.1331 55.2001Z" fill="#4D4E50"/>
</svg>
