<svg width="28" height="28" viewBox="0 0 28 28" fill="none" xmlns="http://www.w3.org/2000/svg">
<path d="M1.01868 11.7469H11.8107V0.954916H1.01868V11.7469ZM12.1893 12.5029H0.639974C0.431974 12.5029 0.262695 12.3336 0.262695 12.1256V0.577605C0.262695 0.366938 0.431974 0.197592 0.639974 0.197592H12.1893C12.3987 0.197592 12.5667 0.366938 12.5667 0.577605V12.1256C12.5667 12.3336 12.3987 12.5029 12.1893 12.5029Z" fill="white"/>
<path d="M15.7277 11.7469H26.5197V0.954916H15.7277V11.7469ZM26.8984 12.5029H15.3503C15.1397 12.5029 14.9717 12.3336 14.9717 12.1256V0.577605C14.9717 0.366938 15.1397 0.197592 15.3503 0.197592H26.8984C27.1064 0.197592 27.2757 0.366938 27.2757 0.577605V12.1256C27.2757 12.3336 27.1064 12.5029 26.8984 12.5029Z" fill="white"/>
<path d="M1.01868 26.3334H11.8107V15.5414H1.01868V26.3334ZM12.1893 27.0894H0.639974C0.431974 27.0894 0.262695 26.92 0.262695 26.712V15.164C0.262695 14.9547 0.431974 14.7867 0.639974 14.7867H12.1893C12.3987 14.7867 12.5667 14.9547 12.5667 15.164V26.712C12.5667 26.92 12.3987 27.0894 12.1893 27.0894Z" fill="white"/>
<path d="M15.7277 26.3334H26.5197V15.5414H15.7277V26.3334ZM26.8984 27.0894H15.3503C15.1397 27.0894 14.9717 26.92 14.9717 26.712V15.164C14.9717 14.9547 15.1397 14.7867 15.3503 14.7867H26.8984C27.1064 14.7867 27.2757 14.9547 27.2757 15.164V26.712C27.2757 26.92 27.1064 27.0894 26.8984 27.0894Z" fill="white"/>
</svg>
