<svg width="103" height="104" viewBox="0 0 103 104" fill="none" xmlns="http://www.w3.org/2000/svg">
<path d="M4.29001 47.1901H42.9001C45.2682 47.1901 47.1901 45.2682 47.1901 42.9001V4.29001C47.1901 1.92193 45.2682 0 42.9001 0H4.29001C1.92193 0 0 1.92193 0 4.29001V42.9001C0 45.2682 1.92193 47.1901 4.29001 47.1901Z" fill="#DBDBDB"/>
<path d="M98.6701 0H60.06C57.6919 0 55.77 1.92193 55.77 4.29001V42.9001C55.77 45.2682 57.6919 47.1901 60.06 47.1901H98.6701C101.038 47.1901 102.96 45.2682 102.96 42.9001V4.29001C102.96 1.92193 101.038 0 98.6701 0Z" fill="#DBDBDB"/>
<path d="M4.29001 103.333H42.9001C45.2682 103.333 47.1901 101.411 47.1901 99.0432V60.4331C47.1901 58.065 45.2682 56.1431 42.9001 56.1431H4.29001C1.92193 56.1431 0 58.065 0 60.4331V99.0432C0 101.411 1.92193 103.333 4.29001 103.333Z" fill="#DBDBDB"/>
<path d="M98.6701 56.1431H60.06C57.6919 56.1431 55.77 58.065 55.77 60.4331V99.0432C55.77 101.411 57.6919 103.333 60.06 103.333H98.6701C101.038 103.333 102.96 101.411 102.96 99.0432V60.4331C102.96 58.065 101.038 56.1431 98.6701 56.1431Z" fill="#DBDBDB"/>
</svg>
