<svg width="26" height="29" viewBox="0 0 26 29" fill="none" xmlns="http://www.w3.org/2000/svg">
<path d="M4.41357 28.4761H4.39768L4.12828 28.3481L1.08167 24.8681C0.944334 24.7107 0.960272 24.4721 1.11761 24.3347C1.27361 24.1974 1.51364 24.2134 1.64964 24.3707L4.43492 27.5507L7.69898 24.3947C7.84965 24.2507 8.08829 24.2534 8.23362 24.4041C8.37762 24.5534 8.37358 24.7934 8.22425 24.9387L4.6749 28.3707L4.41357 28.4761Z" fill="white"/>
<path d="M4.41315 28.4761C4.20248 28.4761 4.0332 28.3067 4.0332 28.0987V1.21875C4.0332 1.01075 4.20248 0.841405 4.41315 0.841405C4.62115 0.841405 4.79049 1.01075 4.79049 1.21875V28.0987C4.79049 28.3067 4.62115 28.4761 4.41315 28.4761Z" fill="white"/>
<path d="M1.36522 4.57715L1.10389 4.47181C0.953223 4.32781 0.94791 4.08778 1.09191 3.93711L4.27056 0.609115L4.53579 0.491797L4.80649 0.598503L8.22381 3.89583C8.37314 4.03983 8.37719 4.27983 8.23319 4.42917C8.08785 4.58117 7.84922 4.58378 7.69855 4.43978L4.55584 1.40645L1.63852 4.45983L1.36522 4.57715Z" fill="white"/>
<path d="M16.2453 14.828H19.8239L18.0346 10.4666L16.2453 14.828ZM22.1493 19.876C22.0013 19.876 21.8613 19.788 21.8013 19.64L20.1359 15.584H15.9346L14.2692 19.64C14.1906 19.8346 13.9693 19.9253 13.776 19.848C13.584 19.768 13.4907 19.5466 13.5707 19.3546L15.328 15.072L15.3359 15.0533L17.6853 9.32796C17.7439 9.18663 17.8813 9.09333 18.0346 9.09333C18.1879 9.09333 18.3253 9.18663 18.384 9.32796L20.7346 15.0533L20.7413 15.072L22.5 19.3546C22.5786 19.5466 22.4867 19.768 22.2933 19.848L22.1493 19.876Z" fill="white"/>
<path d="M24.9668 15.6187H11.4574C11.2494 15.6187 11.0801 15.4493 11.0801 15.2413C11.0801 15.0307 11.2494 14.8613 11.4574 14.8613H24.9668C25.1748 14.8613 25.3441 15.0307 25.3441 15.2413C25.3441 15.4493 25.1748 15.6187 24.9668 15.6187Z" fill="white"/>
<path d="M16.2453 14.8279H19.8239L18.0346 10.4665L16.2453 14.8279ZM22.1493 19.8759C22.0013 19.8759 21.8613 19.7879 21.8013 19.6399L20.1359 15.5839H15.9346L14.2692 19.6399C14.1906 19.8345 13.9707 19.9266 13.776 19.8479C13.584 19.7679 13.4907 19.5465 13.5707 19.3545L15.328 15.0705L15.3346 15.0545L17.6853 9.32787C17.7439 9.18653 17.8813 9.09323 18.0346 9.09323C18.1879 9.09323 18.3253 9.18653 18.384 9.32787L20.7346 15.0545L20.7413 15.0705L22.5 19.3545C22.5786 19.5465 22.4867 19.7679 22.2933 19.8479L22.1493 19.8759Z" fill="white"/>
</svg>
