<svg width="1" height="1" viewBox="0 0 1 1" fill="none" xmlns="http://www.w3.org/2000/svg">
<path d="M0.499995 0.166669C0.683745 0.166669 0.833328 0.316253 0.833328 0.500003C0.833328 0.683753 0.683745 0.833336 0.499995 0.833336C0.316245 0.833336 0.166662 0.683753 0.166662 0.500003C0.166662 0.316253 0.316245 0.166669 0.499995 0.166669ZM0.499995 0.0833359C0.26987 0.0833359 0.0833282 0.269878 0.0833282 0.500003C0.0833282 0.730128 0.26987 0.916669 0.499995 0.916669C0.73012 0.916669 0.916662 0.730128 0.916662 0.500003C0.916662 0.269878 0.73012 0.0833359 0.499995 0.0833359ZM0.708328 0.458336H0.291662V0.541669H0.708328V0.458336Z" fill="black"/>
</svg>
