<svg width="28" height="28" viewBox="0 0 28 28" fill="none" xmlns="http://www.w3.org/2000/svg">
<path d="M8.55586 22.1985C8.87319 22.1985 9.19456 22.2718 9.49323 22.4212C9.87856 22.6145 10.2812 22.7825 10.6879 22.9198C11.5559 23.2172 12.1385 24.0278 12.1385 24.9385V26.1678C12.1385 26.3092 12.2532 26.4251 12.3959 26.4251H15.2812C15.4225 26.4251 15.5385 26.3092 15.5385 26.1678V24.9385C15.5385 24.0278 16.1212 23.2172 16.9892 22.9198C17.3959 22.7825 17.7985 22.6145 18.1839 22.4212C18.9879 22.0198 19.9545 22.1745 20.5865 22.8052L21.4839 23.7038H21.8505L23.8892 21.6652L23.9652 21.4812L23.8892 21.2998L22.9799 20.3905C22.3505 19.7598 22.1946 18.7985 22.5906 17.9945C22.7826 17.6078 22.9479 17.2065 23.0852 16.7998C23.3772 15.9345 24.1826 15.3545 25.0879 15.3545H26.3532C26.4945 15.3545 26.6105 15.2385 26.6105 15.0958V12.2105C26.6105 12.0691 26.4945 11.9532 26.3532 11.9532H25.0652C24.1639 11.9532 23.3612 11.3758 23.0652 10.5185C22.9266 10.1185 22.7612 9.72248 22.5732 9.34382C22.1705 8.53715 22.3252 7.57183 22.9572 6.93983L23.8892 6.0065L23.9652 5.82383L23.8892 5.64116L21.8505 3.60116H21.4839L20.5412 4.54649C19.9132 5.17582 18.9492 5.33182 18.1439 4.93449C17.7639 4.74782 17.3679 4.58382 16.9692 4.44649C16.1132 4.15715 15.5385 3.35982 15.5385 2.46115V1.13849C15.5385 0.997161 15.4225 0.881154 15.2812 0.881154H12.3959C12.2532 0.881154 12.1385 0.997161 12.1385 1.13849V2.46115C12.1385 3.35982 11.5639 4.15715 10.7079 4.44649C10.3079 4.58382 9.91323 4.74782 9.5319 4.93449C8.72923 5.33182 7.76521 5.17582 7.13587 4.54515L6.19186 3.60116H5.82656L3.78789 5.64116L3.71055 5.82383L3.78789 6.0065L4.71986 6.93849C5.35186 7.57183 5.50651 8.53715 5.10384 9.34382C4.91584 9.72382 4.74918 10.1185 4.61185 10.5185C4.31585 11.3758 3.51318 11.9532 2.61185 11.9532H1.32389C1.18256 11.9532 1.06654 12.0691 1.06654 12.2105V15.0958C1.06654 15.2385 1.18256 15.3545 1.32389 15.3545H2.58789C3.49456 15.3545 4.29989 15.9345 4.59056 16.7998C4.72923 17.2052 4.89455 17.6078 5.08522 17.9945C5.48255 18.7985 5.32656 19.7598 4.6959 20.3905L3.78789 21.2998L3.71055 21.4812L3.78789 21.6652L5.82656 23.7038H6.19186L7.08919 22.8052C7.48786 22.4092 8.01853 22.1985 8.55586 22.1985ZM15.2812 27.1812H12.3959C11.8372 27.1812 11.3826 26.7265 11.3826 26.1678V24.9385C11.3826 24.3518 11.0052 23.8278 10.4439 23.6372C10.0052 23.4865 9.57186 23.3052 9.15586 23.0972C8.64119 22.8412 8.02653 22.9385 7.62519 23.3412L6.72656 24.2398C6.3439 24.6225 5.67456 24.6212 5.29323 24.2398L3.25189 22.1985C2.85855 21.8038 2.85855 21.1612 3.25189 20.7652L4.16256 19.8558C4.5639 19.4558 4.66118 18.8425 4.40918 18.3292C4.20251 17.9132 4.02388 17.4785 3.87454 17.0412C3.68788 16.4838 3.16922 16.1091 2.58789 16.1091H1.32389C0.765227 16.1091 0.310547 15.6545 0.310547 15.0958V12.2105C0.310547 11.6518 0.765227 11.1972 1.32389 11.1972H2.61185C3.19052 11.1972 3.70653 10.8252 3.8972 10.2718C4.0452 9.84249 4.22386 9.41716 4.42786 9.0065C4.6852 8.4905 4.58655 7.8745 4.18522 7.47316L3.25189 6.54116C3.06122 6.3505 2.95586 6.0945 2.95586 5.82383C2.95586 5.55316 3.06122 5.29983 3.25189 5.10783L5.29323 3.06782C5.67456 2.68516 6.3439 2.68516 6.72656 3.06782L7.67051 4.01182C8.07051 4.41315 8.6852 4.51049 9.1972 4.25583C9.60787 4.05449 10.0346 3.87715 10.4652 3.73182C11.0146 3.54515 11.3826 3.03448 11.3826 2.46115V1.13849C11.3826 0.581161 11.8372 0.125148 12.3959 0.125148H15.2812C15.8399 0.125148 16.2945 0.581161 16.2945 1.13849V2.46115C16.2945 3.03448 16.6625 3.54515 17.2118 3.73182C17.6425 3.87715 18.0692 4.05449 18.4785 4.25583C18.9932 4.51049 19.6065 4.41182 20.0065 4.01182L20.9505 3.06782C21.3452 2.67316 21.9879 2.67182 22.3839 3.06782L24.4239 5.10783C24.6159 5.29983 24.7212 5.55316 24.7212 5.82383C24.7212 6.0945 24.6159 6.3505 24.4239 6.54116L23.4919 7.47316C23.0892 7.8745 22.9919 8.4905 23.2492 9.0065C23.4532 9.41583 23.6319 9.84116 23.7799 10.2732C23.9705 10.8252 24.4866 11.1972 25.0652 11.1972H26.3532C26.9119 11.1972 27.3665 11.6518 27.3665 12.2105V15.0958C27.3665 15.6545 26.9119 16.1091 26.3532 16.1091H25.0879C24.5066 16.1091 23.9892 16.4838 23.8025 17.0412C23.6532 17.4798 23.4732 17.9132 23.2678 18.3292C23.0158 18.8425 23.1132 19.4558 23.5145 19.8558L24.4239 20.7652C24.8186 21.1612 24.8186 21.8038 24.4239 22.1985L22.3839 24.2398C21.9892 24.6345 21.3465 24.6345 20.9505 24.2398L20.0519 23.3412C19.6492 22.9385 19.0346 22.8412 18.5212 23.0972C18.1052 23.3052 17.6719 23.4865 17.2332 23.6372C16.6719 23.8278 16.2945 24.3518 16.2945 24.9385V26.1678C16.2945 26.7265 15.8399 27.1812 15.2812 27.1812Z" fill="white"/>
<path d="M13.8387 6.85876C10.0907 6.85876 7.04271 9.90677 7.04271 13.6534C7.04271 17.4001 10.0907 20.4494 13.8387 20.4494C17.5854 20.4494 20.6347 17.4001 20.6347 13.6534C20.6347 9.90677 17.5854 6.85876 13.8387 6.85876ZM13.8387 21.2041C9.67474 21.2041 6.28809 17.8174 6.28809 13.6534C6.28809 9.48944 9.67474 6.10277 13.8387 6.10277C18.0027 6.10277 21.3894 9.48944 21.3894 13.6534C21.3894 17.8174 18.0027 21.2041 13.8387 21.2041Z" fill="white"/>
</svg>
