<svg width="138" height="103" viewBox="0 0 138 103" fill="none" xmlns="http://www.w3.org/2000/svg">
<path d="M86.0354 3.1068e-07H51.9685C50.8834 3.1068e-07 50 0.903041 50 2.0195V28.9845C50 30.1108 50.8834 31 51.9685 31H86.0354C87.1166 31 88 30.1108 88 28.9845V2.0195C88 0.903041 87.1166 3.1068e-07 86.0354 3.1068e-07Z" fill="#DBDBDB"/>
<path d="M136.033 72H101.969C100.883 72 100 72.9085 100 74.0338V100.967C100 102.092 100.883 103 101.969 103H136.033C137.12 103 138 102.092 138 100.967V74.0338C138 72.9085 137.12 72 136.033 72Z" fill="#DBDBDB"/>
<path d="M86.0354 72H51.9685C50.8834 72 50 72.9085 50 74.0338V100.967C50 102.092 50.8834 103 51.9685 103H86.0354C87.1166 103 88 102.092 88 100.967V74.0338C88 72.9085 87.1166 72 86.0354 72Z" fill="#DBDBDB"/>
<path d="M36.9835 72H2.01653C0.900832 72 0 72.9085 0 74.0338V100.967C0 102.092 0.900832 103 2.01653 103H36.9835C38.0933 103 39 102.092 39 100.967V74.0338C39 72.9085 38.0933 72 36.9835 72Z" fill="#DBDBDB"/>
<path d="M122.988 48.8446C122.988 47.7429 122.085 46.8537 120.975 46.8537H73.115V35.9716C73.115 34.8891 72.2116 34 71.0998 34H67.0714C65.9615 34 65.0582 34.8891 65.0582 35.9716V46.8537H17.0643C15.9544 46.8537 15.0511 47.7429 15.0511 48.8446V49.5405C15.0432 49.6178 15 49.6951 15 49.7724V65.6411C15 66.7428 15.9052 67.6322 17.0171 67.6322H21.0454C22.1553 67.6322 23.0567 66.7428 23.0567 65.6411V54.7593H65.0582V65.6411C65.0582 66.7428 65.9615 67.6322 67.0714 67.6322H71.0998C72.2116 67.6322 73.115 66.7428 73.115 65.6411V54.7593H114.943V66.0089C114.943 67.1105 115.847 68 116.96 68H120.989C122.099 68 123 67.1105 123 66.0089V49.4052C123 49.3859 122.988 49.3665 122.988 49.3472V48.8446Z" fill="#DBDBDB"/>
</svg>
