<svg width="22" height="16" viewBox="0 0 22 16" fill="none" xmlns="http://www.w3.org/2000/svg">
<path d="M11.2343 1.6001H1.04232C0.832984 1.6001 0.665039 1.42663 0.665039 1.2137C0.665039 1.01316 0.832984 0.840234 1.04232 0.840234H11.2343C11.4436 0.840234 11.613 1.01316 11.613 1.2137C11.613 1.42663 11.4436 1.6001 11.2343 1.6001Z" fill="white"/>
<path d="M21.0689 5H1.04232C0.832984 5 0.665039 4.82654 0.665039 4.61307C0.665039 4.4136 0.832984 4.24014 1.04232 4.24014H21.0689C21.2783 4.24014 21.4463 4.4136 21.4463 4.61307C21.4463 4.82654 21.2783 5 21.0689 5Z" fill="white"/>
<path d="M11.2343 8.3999H1.04232C0.832984 8.3999 0.665039 8.22643 0.665039 8.02643C0.665039 7.81297 0.832984 7.64004 1.04232 7.64004H11.2343C11.4436 7.64004 11.613 7.81297 11.613 8.02643C11.613 8.22643 11.4436 8.3999 11.2343 8.3999Z" fill="white"/>
<path d="M11.2343 15.2002H1.04232C0.832984 15.2002 0.665039 15.0267 0.665039 14.8267C0.665039 14.6133 0.832984 14.4403 1.04232 14.4403H11.2343C11.4436 14.4403 11.613 14.6133 11.613 14.8267C11.613 15.0267 11.4436 15.2002 11.2343 15.2002Z" fill="white"/>
<path d="M21.0689 11.7998H1.04232C0.832984 11.7998 0.665039 11.6263 0.665039 11.4263C0.665039 11.2134 0.832984 11.0399 1.04232 11.0399H21.0689C21.2783 11.0399 21.4463 11.2134 21.4463 11.4263C21.4463 11.6263 21.2783 11.7998 21.0689 11.7998Z" fill="white"/>
</svg>
