<svg width="22" height="16" viewBox="0 0 22 16" fill="none" xmlns="http://www.w3.org/2000/svg">
<path d="M15.7973 1.6001H5.60391C5.39591 1.6001 5.22656 1.42663 5.22656 1.2137C5.22656 1.01316 5.39591 0.840234 5.60391 0.840234H15.7973C16.0053 0.840234 16.1745 1.01316 16.1745 1.2137C16.1745 1.42663 16.0053 1.6001 15.7973 1.6001Z" fill="white"/>
<path d="M20.713 5H0.686393C0.47706 5 0.307617 4.82654 0.307617 4.61307C0.307617 4.4136 0.47706 4.24014 0.686393 4.24014H20.713C20.921 4.24014 21.0903 4.4136 21.0903 4.61307C21.0903 4.82654 20.921 5 20.713 5Z" fill="white"/>
<path d="M15.7973 8.3999H5.60391C5.39591 8.3999 5.22656 8.22643 5.22656 8.02643C5.22656 7.81297 5.39591 7.64004 5.60391 7.64004H15.7973C16.0053 7.64004 16.1745 7.81297 16.1745 8.02643C16.1745 8.22643 16.0053 8.3999 15.7973 8.3999Z" fill="white"/>
<path d="M15.7973 15.2002H5.60391C5.39591 15.2002 5.22656 15.0267 5.22656 14.8267C5.22656 14.6133 5.39591 14.4403 5.60391 14.4403H15.7973C16.0053 14.4403 16.1745 14.6133 16.1745 14.8267C16.1745 15.0267 16.0053 15.2002 15.7973 15.2002Z" fill="white"/>
<path d="M20.713 11.7998H0.686393C0.47706 11.7998 0.307617 11.6263 0.307617 11.4263C0.307617 11.2134 0.47706 11.0399 0.686393 11.0399H20.713C20.921 11.0399 21.0903 11.2134 21.0903 11.4263C21.0903 11.6263 20.921 11.7998 20.713 11.7998Z" fill="white"/>
</svg>
