<svg width="22" height="16" viewBox="0 0 22 16" fill="none" xmlns="http://www.w3.org/2000/svg">
<path d="M21.1799 1.6001H10.9867C10.7774 1.6001 10.6094 1.42663 10.6094 1.2137C10.6094 1.01316 10.7774 0.840234 10.9867 0.840234H21.1799C21.3879 0.840234 21.5573 1.01316 21.5573 1.2137C21.5573 1.42663 21.3879 1.6001 21.1799 1.6001Z" fill="white"/>
<path d="M21.1798 5H1.15176C0.943758 5 0.774414 4.82654 0.774414 4.61307C0.774414 4.4136 0.943758 4.24014 1.15176 4.24014H21.1798C21.3878 4.24014 21.5571 4.4136 21.5571 4.61307C21.5571 4.82654 21.3878 5 21.1798 5Z" fill="white"/>
<path d="M21.1799 8.3999H10.9867C10.7774 8.3999 10.6094 8.22643 10.6094 8.02643C10.6094 7.81297 10.7774 7.64004 10.9867 7.64004H21.1799C21.3879 7.64004 21.5573 7.81297 21.5573 8.02643C21.5573 8.22643 21.3879 8.3999 21.1799 8.3999Z" fill="white"/>
<path d="M21.1799 15.2002H10.9867C10.7774 15.2002 10.6094 15.0267 10.6094 14.8267C10.6094 14.6133 10.7774 14.4403 10.9867 14.4403H21.1799C21.3879 14.4403 21.5573 14.6133 21.5573 14.8267C21.5573 15.0267 21.3879 15.2002 21.1799 15.2002Z" fill="white"/>
<path d="M21.1798 11.7998H1.15176C0.943758 11.7998 0.774414 11.6263 0.774414 11.4263C0.774414 11.2134 0.943758 11.0399 1.15176 11.0399H21.1798C21.3878 11.0399 21.5571 11.2134 21.5571 11.4263C21.5571 11.6263 21.3878 11.7998 21.1798 11.7998Z" fill="white"/>
</svg>
